<?xml version="1.0" encoding="UTF-8"?>
<svg version="1.1" xmlns="http://www.w3.org/2000/svg" width="2560" height="2560">
<path d="M0 0 C0.66 0 1.32 0 2 0 C25.77102522 48.69196314 25.77102522 48.69196314 35.55078125 69.57421875 C36.86679603 72.38299612 38.18325011 75.19156718 39.5 78 C39.83330322 78.7111496 40.16660645 79.42229919 40.51000977 80.15499878 C46.51842322 92.96353309 52.6980228 105.68440603 58.91921997 118.39068604 C63.86860097 128.50438666 68.74129297 138.64073378 73.4375 148.875 C78.82330075 160.60882238 84.4503422 172.2162564 90.125 183.8125 C90.5629892 184.70766327 91.00097839 185.60282654 91.45223999 186.52511597 C93.1641442 190.02351379 94.87622314 193.52182601 96.58863831 197.01997375 C102.68666516 209.48278097 108.66214343 222.00154388 114.546875 234.56640625 C115.8641776 237.37779449 117.1819475 240.18896326 118.5 243 C119.00009079 244.06699631 119.00009079 244.06699631 119.51028442 245.1555481 C125.51892023 257.96458012 131.6987048 270.68597183 137.92022705 283.3927002 C142.84894002 293.46395954 147.70116543 303.557413 152.375 313.75 C158.32488374 326.72395744 164.6056594 339.52788014 170.89398193 352.34020996 C176.72921552 364.23462518 182.45196354 376.16106933 187.96875 388.20703125 C193.40343307 400.00528454 199.15314222 411.64787743 204.87841797 423.30706787 C211.08275763 435.9463887 217.18157129 448.61997599 223.00585938 461.43945312 C223.69905273 462.95829102 223.69905273 462.95829102 224.40625 464.5078125 C224.79103516 465.36004395 225.17582031 466.21227539 225.57226562 467.09033203 C226.83943812 469.67278103 228.18746675 472.17102109 229.5892334 474.68185425 C230.04041283 475.49091154 230.49159225 476.29996883 230.95644379 477.13354301 C231.30081734 477.74947382 231.64519089 478.36540462 232 479 C248.89435416 473.37643819 265.78808828 467.75101788 282.68114376 462.12355614 C290.53007129 459.50894446 298.37918162 456.89488437 306.22875977 454.28222656 C348.54275457 440.21737188 348.54275457 440.21737188 390.76693535 425.88601303 C405.4318012 420.85178068 420.13266517 415.92866695 434.84375 411.03125 C436.01063921 410.64276508 437.17752842 410.25428017 438.37977791 409.85402298 C447.95869864 406.66569895 457.53893201 403.48132602 467.11920166 400.29705811 C475.4654853 397.52275957 483.81127155 394.74697219 492.15625 391.96875 C493.32248901 391.58051056 494.48872803 391.19227112 495.69030762 390.79226685 C511.16106203 385.639698 526.60837198 380.42409073 542.03196716 375.13218689 C556.72460032 370.09332813 571.44997787 365.15591982 586.1875 360.25 C587.32010757 359.87294418 588.45271515 359.49588837 589.61964417 359.10740662 C598.91550349 356.01342979 608.2126757 352.92340525 617.5098877 349.83349609 C625.61136124 347.14080736 633.71233462 344.44662156 641.8125 341.75 C642.94601898 341.37266724 644.07953796 340.99533447 645.24740601 340.60656738 C659.68588425 335.79791503 674.10540566 330.93840948 688.5 326 C704.0360916 320.66997262 719.60332816 315.43775488 735.1875 310.25 C736.31997162 309.8729895 737.45244324 309.495979 738.61923218 309.10754395 C747.91522884 306.01352135 757.21253833 302.9234509 766.5098877 299.83349609 C774.61136124 297.14080736 782.71233462 294.44662156 790.8125 291.75 C791.94601898 291.37266724 793.07953796 290.99533447 794.24740601 290.60656738 C808.68588425 285.79791503 823.10540566 280.93840948 837.5 276 C853.0360916 270.66997262 868.60332816 265.43775488 884.1875 260.25 C885.31997162 259.8729895 886.45244324 259.495979 887.61923218 259.10754395 C896.91522884 256.01352135 906.21253833 252.9234509 915.5098877 249.83349609 C923.61136124 247.14080736 931.71233474 244.44662193 939.8125 241.75 C941.51352623 241.1837516 941.51352623 241.1837516 943.24891663 240.60606384 C957.65564546 235.80798327 972.04344381 230.95919243 986.40625 226.03125 C1002.19148764 220.61538078 1018.00961286 215.30241352 1033.84375 210.03125 C1035.59190002 209.44925339 1035.59190002 209.44925339 1037.37536621 208.85549927 C1046.95575759 205.66668337 1056.53746045 202.48181514 1066.11920166 199.29705811 C1074.46548529 196.52275957 1082.81127341 193.74697777 1091.15625 190.96875 C1092.31337053 190.58354313 1093.47049107 190.19833626 1094.66267586 189.80145645 C1111.57989707 184.16706269 1128.46953077 178.45657441 1145.33702087 172.67514038 C1158.72217835 168.08739278 1172.13313968 163.58189594 1185.5625 159.125 C1187.68820083 158.41811844 1189.81385167 157.71108656 1191.93945312 157.00390625 C1196.9590718 155.33423665 1201.97932393 153.66648716 1207 152 C1208 155 1208 155 1206.75927734 157.65356445 C1205.80722412 159.24237427 1205.80722412 159.24237427 1204.8359375 160.86328125 C1204.49255341 161.44288605 1204.14916931 162.02249084 1203.79537964 162.61965942 C1202.66471445 164.5230939 1201.51994463 166.41762672 1200.375 168.3125 C1199.58723152 169.632958 1198.80045515 170.95400837 1198.01464844 172.27563477 C1196.42922431 174.9391058 1194.83858456 177.59934105 1193.24316406 180.25683594 C1190.74548116 184.41946459 1188.27764835 188.59939975 1185.81396484 192.78222656 C1184.24385841 195.4479271 1182.66953476 198.11109019 1181.09375 200.7734375 C1180.32611328 202.07039551 1180.32611328 202.07039551 1179.54296875 203.39355469 C1178.51432292 205.1311849 1177.48567708 206.8688151 1176.45703125 208.60644531 C1174.88753757 211.25817802 1173.31858757 213.9102312 1171.75 216.5625 C1171.22229004 217.45469238 1170.69458008 218.34688477 1170.15087891 219.26611328 C1167.06530117 224.48821291 1163.99173747 229.71719768 1160.9296875 234.953125 C1159.49485523 237.40628719 1158.06000466 239.85943865 1156.625 242.3125 C1156.26542206 242.9271814 1155.90584412 243.54186279 1155.53536987 244.1751709 C1149.90947235 253.78771291 1144.20511621 263.35042911 1138.45800781 272.89111328 C1133.61135864 280.94953714 1128.85680604 289.05884369 1124.13037109 297.18823242 C1118.1401536 307.49042479 1112.07253812 317.74618678 1106 328 C1103.91579793 331.52031998 1101.83245268 335.04114488 1099.75 338.5625 C1099.22253174 339.45428955 1098.69506348 340.3460791 1098.15161133 341.26489258 C1095.06577667 346.4873916 1091.99197703 351.71678805 1088.9296875 356.953125 C1087.49485523 359.40628719 1086.06000466 361.85943865 1084.625 364.3125 C1084.26542206 364.9271814 1083.90584412 365.54186279 1083.53536987 366.1751709 C1077.90947235 375.78771291 1072.20511621 385.35042911 1066.45800781 394.89111328 C1061.60831565 402.95459666 1056.85067607 411.0689394 1052.12158203 419.20361328 C1047.81465105 426.61134061 1043.46741153 433.99415398 1039.10058594 441.36669922 C1036.03165249 446.55185282 1032.9750849 451.74401514 1029.93359375 456.9453125 C1029.58290833 457.54495819 1029.2322229 458.14460388 1028.87091064 458.76242065 C1028.51664001 459.36820953 1028.16236938 459.97399841 1027.79736328 460.59814453 C1021.08721481 472.07204102 1014.31671799 483.50507651 1007.45800781 494.89111328 C1002.61135864 502.94953714 997.85680604 511.05884369 993.13037109 519.18823242 C987.1401536 529.49042479 981.07253812 539.74618678 975 550 C972.91579793 553.52031998 970.83245268 557.04114488 968.75 560.5625 C968.22253174 561.45428955 967.69506348 562.3460791 967.15161133 563.26489258 C964.06577667 568.4873916 960.99197703 573.71678805 957.9296875 578.953125 C956.49485523 581.40628719 955.06000466 583.85943865 953.625 586.3125 C953.26542206 586.9271814 952.90584412 587.54186279 952.53536987 588.1751709 C946.90947235 597.78771291 941.20511621 607.35042911 935.45800781 616.89111328 C930.60831565 624.95459666 925.85067607 633.0689394 921.12158203 641.20361328 C916.81465105 648.61134061 912.46741153 655.99415398 908.10058594 663.36669922 C905.03165249 668.55185282 901.9750849 673.74401514 898.93359375 678.9453125 C898.58290833 679.54495819 898.2322229 680.14460388 897.87091064 680.76242065 C897.51664001 681.36820953 897.16236938 681.97399841 896.79736328 682.59814453 C890.08721481 694.07204102 883.31671799 705.50507651 876.45800781 716.89111328 C871.61135864 724.94953714 866.85680604 733.05884369 862.13037109 741.18823242 C856.1401536 751.49042479 850.07253812 761.74618678 844 772 C841.91579793 775.52031998 839.83245268 779.04114488 837.75 782.5625 C837.22253174 783.45428955 836.69506348 784.3460791 836.15161133 785.26489258 C833.06577667 790.4873916 829.99197703 795.71678805 826.9296875 800.953125 C825.49485523 803.40628719 824.06000466 805.85943865 822.625 808.3125 C822.26542206 808.9271814 821.90584412 809.54186279 821.53536987 810.1751709 C815.90947235 819.78771291 810.20511621 829.35042911 804.45800781 838.89111328 C799.61135864 846.94953714 794.85680604 855.05884369 790.13037109 863.18823242 C784.1401536 873.49042479 778.07253812 883.74618678 772 894 C769.91579793 897.52031998 767.83245268 901.04114488 765.75 904.5625 C765.22253174 905.45428955 764.69506348 906.3460791 764.15161133 907.26489258 C761.06577667 912.4873916 757.99197703 917.71678805 754.9296875 922.953125 C753.49485523 925.40628719 752.06000466 927.85943865 750.625 930.3125 C750.26542206 930.9271814 749.90584412 931.54186279 749.53536987 932.1751709 C743.90947235 941.78771291 738.20511621 951.35042911 732.45800781 960.89111328 C727.60831565 968.95459666 722.85067607 977.0689394 718.12158203 985.20361328 C713.81465105 992.61134061 709.46741153 999.99415398 705.10058594 1007.36669922 C702.03165249 1012.55185282 698.9750849 1017.74401514 695.93359375 1022.9453125 C695.58290833 1023.54495819 695.2322229 1024.14460388 694.87091064 1024.76242065 C694.51664001 1025.36820953 694.16236938 1025.97399841 693.79736328 1026.59814453 C687.08721481 1038.07204102 680.31671799 1049.50507651 673.45800781 1060.89111328 C668.61135864 1068.94953714 663.85680604 1077.05884369 659.13037109 1085.18823242 C653.1401536 1095.49042479 647.07253812 1105.74618678 641 1116 C638.91579793 1119.52031998 636.83245268 1123.04114488 634.75 1126.5625 C634.22253174 1127.45428955 633.69506348 1128.3460791 633.15161133 1129.26489258 C630.06577667 1134.4873916 626.99197703 1139.71678805 623.9296875 1144.953125 C622.49485523 1147.40628719 621.06000466 1149.85943865 619.625 1152.3125 C619.26542206 1152.9271814 618.90584412 1153.54186279 618.53536987 1154.1751709 C612.90947235 1163.78771291 607.20511621 1173.35042911 601.45800781 1182.89111328 C596.60831565 1190.95459666 591.85067607 1199.0689394 587.12158203 1207.20361328 C582.81465105 1214.61134061 578.46741153 1221.99415398 574.10058594 1229.36669922 C571.03165249 1234.55185282 567.9750849 1239.74401514 564.93359375 1244.9453125 C564.58290833 1245.54495819 564.2322229 1246.14460388 563.87091064 1246.76242065 C563.51664001 1247.36820953 563.16236938 1247.97399841 562.79736328 1248.59814453 C556.08721481 1260.07204102 549.31671799 1271.50507651 542.45800781 1282.89111328 C537.61135864 1290.94953714 532.85680604 1299.05884369 528.13037109 1307.18823242 C522.1401536 1317.49042479 516.07253812 1327.74618678 510 1338 C507.91579793 1341.52031998 505.83245268 1345.04114488 503.75 1348.5625 C503.22253174 1349.45428955 502.69506348 1350.3460791 502.15161133 1351.26489258 C499.06577667 1356.4873916 495.99197703 1361.71678805 492.9296875 1366.953125 C491.49485523 1369.40628719 490.06000466 1371.85943865 488.625 1374.3125 C488.26542206 1374.9271814 487.90584412 1375.54186279 487.53536987 1376.1751709 C481.90947235 1385.78771291 476.20511621 1395.35042911 470.45800781 1404.89111328 C465.60831565 1412.95459666 460.85067607 1421.0689394 456.12158203 1429.20361328 C451.81465105 1436.61134061 447.46741153 1443.99415398 443.10058594 1451.36669922 C440.03165249 1456.55185282 436.9750849 1461.74401514 433.93359375 1466.9453125 C433.58290833 1467.54495819 433.2322229 1468.14460388 432.87091064 1468.76242065 C432.51664001 1469.36820953 432.16236938 1469.97399841 431.79736328 1470.59814453 C425.08721481 1482.07204102 418.31671799 1493.50507651 411.45800781 1504.89111328 C406.61135864 1512.94953714 401.85680604 1521.05884369 397.13037109 1529.18823242 C391.1401536 1539.49042479 385.07253812 1549.74618678 379 1560 C376.91579792 1563.52031998 374.83250906 1567.04117822 372.75 1570.5625 C372.23050781 1571.4405127 371.71101563 1572.31852539 371.17578125 1573.22314453 C367.95029873 1578.68068421 364.74120875 1584.14756433 361.54296875 1589.62109375 C361.16119476 1590.27404922 360.77942078 1590.9270047 360.38607788 1591.5997467 C358.50028548 1594.82505927 356.61620885 1598.05134797 354.73535156 1601.27954102 C354.04109733 1602.46765842 353.34676499 1603.6557302 352.65234375 1604.84375 C351.73956665 1606.40899414 351.73956665 1606.40899414 350.80834961 1608.00585938 C348.95654516 1611.07194954 347.00858242 1614.03514745 345 1617 C344.34 1616.67 343.68 1616.34 343 1616 C343.26799408 1615.29100555 343.53598816 1614.58201111 343.81210327 1613.85153198 C356.85903328 1579.32960942 369.85504977 1544.78979436 382.6875 1510.1875 C383.24502411 1508.68428492 383.80254975 1507.1810704 384.3600769 1505.67785645 C385.18556302 1503.45209871 386.01104037 1501.22633772 386.83651066 1499.00057411 C387.37245149 1497.55548659 387.90839764 1496.11040104 388.44434929 1494.66531754 C388.96831037 1493.25255136 389.49225287 1491.8397783 390.01617622 1490.42699814 C394.13593946 1479.3185582 398.27186455 1468.21632853 402.4375 1457.125 C402.7126947 1456.39213776 402.9878894 1455.65927551 403.27142334 1454.90420532 C404.77428947 1450.90265739 406.27809567 1446.9014633 407.78222656 1442.90039062 C412.79684893 1429.56029519 417.80577801 1416.21806228 422.8125 1402.875 C423.10023159 1402.10824196 423.38796318 1401.34148392 423.68441391 1400.55149078 C432.75267398 1376.38481973 441.77132278 1352.20008996 450.75 1328 C451.30710702 1326.49849389 451.86421557 1324.99698836 452.42132568 1323.4954834 C452.83198399 1322.38868603 452.83198399 1322.38868603 453.25093842 1321.25952911 C454.59038079 1317.64954904 455.92989941 1314.03959727 457.26953125 1310.4296875 C457.52590111 1309.73884064 457.78227097 1309.04799377 458.04640961 1308.33621216 C462.1576538 1297.25862585 466.28363415 1286.18668262 470.4375 1275.125 C470.71278534 1274.39186584 470.98807068 1273.65873169 471.271698 1272.90338135 C472.77446844 1268.90210653 474.2782001 1264.90119347 475.78222656 1260.90039062 C480.79684893 1247.56029519 485.80577801 1234.21806228 490.8125 1220.875 C491.10023159 1220.10824196 491.38796318 1219.34148392 491.68441391 1218.55149078 C500.75267398 1194.38481973 509.77132278 1170.20008996 518.75 1146 C519.30710702 1144.49849389 519.86421557 1142.99698836 520.42132568 1141.4954834 C520.83198399 1140.38868603 520.83198399 1140.38868603 521.25093842 1139.25952911 C522.59038079 1135.64954904 523.92989941 1132.03959727 525.26953125 1128.4296875 C525.52590111 1127.73884064 525.78227097 1127.04799377 526.04640961 1126.33621216 C530.1576538 1115.25862585 534.28363415 1104.18668262 538.4375 1093.125 C538.71278534 1092.39186584 538.98807068 1091.65873169 539.271698 1090.90338135 C540.77446844 1086.90210653 542.2782001 1082.90119347 543.78222656 1078.90039062 C548.79684893 1065.56029519 553.80577801 1052.21806228 558.8125 1038.875 C559.10023159 1038.10824196 559.38796318 1037.34148392 559.68441391 1036.55149078 C568.75267398 1012.38481973 577.77132278 988.20008996 586.75 964 C587.30710702 962.49849389 587.86421557 960.99698836 588.42132568 959.4954834 C588.83198399 958.38868603 588.83198399 958.38868603 589.25093842 957.25952911 C590.59038079 953.64954904 591.92989941 950.03959727 593.26953125 946.4296875 C593.52590111 945.73884064 593.78227097 945.04799377 594.04640961 944.33621216 C598.1576538 933.25862585 602.28363415 922.18668262 606.4375 911.125 C606.71278534 910.39186584 606.98807068 909.65873169 607.271698 908.90338135 C608.77446844 904.90210653 610.2782001 900.90119347 611.78222656 896.90039062 C616.79684893 883.5602952 621.80577988 870.21806298 626.8125 856.875 C627.10067345 856.10706367 627.38884689 855.33912735 627.68575287 854.54792023 C636.6910245 830.54908234 645.6469637 806.53231115 654.5625 782.5 C661.6614254 763.36518679 668.76442682 744.23218524 675.9375 725.125 C676.28354279 724.20317932 676.62958557 723.28135864 676.9861145 722.331604 C678.81921868 717.44928854 680.65328425 712.56733475 682.48779297 707.68554688 C687.66193947 693.91664482 692.83252192 680.14640607 698 666.375 C698.28516354 665.6150901 698.57032707 664.85518021 698.86413193 664.07224274 C708.70349109 637.85077379 718.4770313 611.60527483 728.21808243 585.34714508 C729.54109491 581.7808622 730.86422832 578.21462421 732.1875 574.6484375 C732.56820271 573.62243942 732.56820271 573.62243942 732.95659637 572.57571411 C739.10209446 556.01569509 745.29763518 539.47456937 751.51757812 522.94238281 C754.01731339 516.29702202 756.50786977 509.64821544 759 503 C739.35373457 507.52050006 719.76457805 512.23668779 700.210729 517.1429497 C696.55178307 518.06042802 692.89212351 518.97505238 689.2325592 519.89006042 C682.91407145 521.4702663 676.59600563 523.05214929 670.27823448 524.63521767 C661.06504838 526.94377278 651.85111965 529.24935305 642.6370183 531.55425205 C627.57292092 535.32257998 612.50930505 539.09282873 597.44604492 542.86450195 C596.54908682 543.08908981 595.65212872 543.31367766 594.72799007 543.54507121 C593.38140437 543.88224096 593.38140437 543.88224096 592.00761491 544.22622222 C590.19300396 544.68058005 588.3783929 545.13493746 586.56378174 545.58929443 C585.66532735 545.81425686 584.76687296 546.03921929 583.84119267 546.27099876 C573.94753615 548.74821864 564.05374658 551.22490693 554.15991211 553.70141602 C552.83573238 554.03287002 552.83573238 554.03287002 551.48480155 554.37102006 C536.5189626 558.11705913 521.55286047 561.86204607 506.58663207 565.60652894 C498.25168189 567.69195592 489.91687792 569.77796375 481.58246422 571.86553383 C472.20592765 574.21411231 462.82914165 576.5616917 453.4519043 578.9074707 C452.3177652 579.1911833 452.3177652 579.1911833 451.16071419 579.48062746 C425.55995483 585.88393925 399.94255911 592.21836868 374.31806552 598.52595842 C349.57557208 604.61655283 324.84833794 610.76523663 300.13613129 616.97774124 C293.87061332 618.55270149 287.60422315 620.12417458 281.33770752 621.69515991 C279.14693761 622.24441435 276.95616842 622.79367164 274.76539993 623.34293175 C273.12920692 623.75314855 273.12920692 623.75314855 271.45995951 624.17165256 C257.00815441 627.79519022 242.55705899 631.42153724 228.10742188 635.05371094 C218.15002743 637.55665024 208.19160232 640.05544232 198.23196721 642.54945123 C193.0191064 643.85499793 187.80679946 645.16266764 182.59578705 646.47557449 C177.76003829 647.69392873 172.92296865 648.90688428 168.08480453 650.11561012 C166.31573528 650.55862121 164.54717135 651.00365584 162.77915573 651.45085335 C160.37108119 652.05963656 157.96130642 652.66116285 155.55096436 653.26089478 C154.85269744 653.43927309 154.15443052 653.6176514 153.435004 653.80143511 C149.88315845 654.6765935 146.66022442 655.19616963 143 655 C139.81591351 648.52209194 136.63312882 642.04354583 133.45180893 635.5642786 C131.97301621 632.55257332 130.4937226 629.54111674 129.01367188 626.5300293 C122.36729784 613.00760704 115.76271017 599.46729207 109.25671387 585.87672424 C105.03379046 577.05748553 100.75892988 568.26441675 96.46304321 559.48052979 C94.31575755 555.08958477 92.1716064 550.69710936 90.02734375 546.3046875 C89.38468819 544.98837845 89.38468819 544.98837845 88.72904968 543.64547729 C84.74304554 535.47867414 80.77431953 527.30355772 76.8125 519.125 C76.33059708 518.13025665 76.33059708 518.13025665 75.83895874 517.11541748 C74.54337643 514.44103132 73.24781246 511.76663627 71.9523468 509.0921936 C68.16141733 501.26703469 64.36205914 493.44597138 60.5625 485.625 C60.20983063 484.89903625 59.85716125 484.17307251 59.49380493 483.42510986 C57.70964265 479.75244893 55.92540339 476.0798254 54.14111328 472.40722656 C50.94742019 465.8335492 47.75448501 459.25950371 44.56149292 452.68548584 C42.79102635 449.0403088 41.02051069 445.39515561 39.25 441.75 C38.54166643 440.29166678 37.8333331 438.83333345 37.125 437.375 C36.774375 436.653125 36.42375 435.93125 36.0625 435.1875 C-1.12500005 358.6249999 -1.12500005 358.6249999 -2.18736267 356.43777466 C-2.8961453 354.97852169 -3.60493641 353.51927283 -4.31373596 352.06002808 C-6.07776431 348.42829881 -7.84164834 344.7964996 -9.60522461 341.16455078 C-12.87342743 334.43431963 -16.14294509 327.70473812 -19.41751099 320.9776001 C-20.93530722 317.85927812 -22.45229942 314.7405653 -23.96923828 311.62182617 C-24.68059206 310.15988137 -25.39232338 308.6981202 -26.10449219 307.23657227 C-31.15798329 296.86521986 -36.10974773 286.44931248 -41 276 C-41.66 276 -42.32 276 -43 276 C-44.47866606 277.60870334 -44.47866606 277.60870334 -45.984375 279.7421875 C-46.8818042 280.95684692 -46.8818042 280.95684692 -47.79736328 282.19604492 C-48.4417334 283.0801001 -49.08610352 283.96415527 -49.75 284.875 C-51.11581523 286.72367089 -52.48303244 288.57130669 -53.8515625 290.41796875 C-54.54540039 291.35560059 -55.23923828 292.29323242 -55.95410156 293.25927734 C-58.95510612 297.27947748 -62.03250574 301.23748577 -65.125 305.1875 C-71.31703776 313.10971723 -77.43370461 321.08699284 -83.53320312 329.08056641 C-85.6819294 331.892365 -87.84066058 334.69634155 -90 337.5 C-95.45908318 344.59063469 -100.893078 351.70036158 -106.32666016 358.81054688 C-109.05033264 362.37428992 -111.77521663 365.93710631 -114.5 369.5 C-115.58333938 370.91666204 -116.66667271 372.33332872 -117.75 373.75 C-171.375 443.875 -225 514 -293.25 603.25 C-293.7864917 603.95157227 -294.3229834 604.65314453 -294.87573242 605.37597656 C-295.95660017 606.78940651 -297.03749201 608.20281804 -298.1184082 609.61621094 C-300.86466505 613.20724701 -303.61047303 616.7986248 -306.35546875 620.390625 C-312.03101716 627.8165762 -317.71620464 635.23477953 -323.41796875 642.640625 C-328.0684032 648.68637123 -332.69533244 654.75016216 -337.32666016 660.81054688 C-340.05033264 664.37428992 -342.77521663 667.93710631 -345.5 671.5 C-346.58333938 672.91666204 -347.66667271 674.33332872 -348.75 675.75 C-378 714 -378 714 -407.25 752.25 C-407.78665283 752.95181396 -408.32330566 753.65362793 -408.8762207 754.37670898 C-409.95533993 755.78779001 -411.03460335 757.19876078 -412.11401367 758.60961914 C-415.45771561 762.98052086 -418.79580442 767.35563994 -422.12988281 771.73388672 C-423.76920756 773.88080273 -425.41720208 776.02082513 -427.06640625 778.16015625 C-428.84909753 780.47611663 -430.57601278 782.80523227 -432.27734375 785.18359375 C-432.92832031 786.07175781 -433.57929687 786.95992187 -434.25 787.875 C-434.77078125 788.61492188 -435.2915625 789.35484375 -435.828125 790.1171875 C-442.86134435 796.21433089 -455.72894958 797.23529324 -464.68359375 799.40234375 C-466.46216306 799.83573175 -468.24064915 800.2694614 -470.01905823 800.70350647 C-474.8206522 801.8744301 -479.62335851 803.04073007 -484.42626953 804.20623779 C-489.51208266 805.44130199 -494.59681292 806.68080811 -499.68164062 807.91992188 C-508.06182702 809.96157385 -516.44256836 812.00093153 -524.82373047 814.03857422 C-535.89539418 816.73048572 -546.9656557 819.42811463 -558.03515625 822.12890625 C-559.28262162 822.43325655 -559.28262162 822.43325655 -560.55528831 822.74375534 C-563.88662217 823.55652695 -567.21795039 824.36932162 -570.54926205 825.18218422 C-576.39426978 826.60837451 -582.23945171 828.03384926 -588.0847168 829.45898438 C-613.30877831 835.60908654 -638.52992802 841.77105978 -663.75 847.9375 C-664.68839722 848.16694305 -665.62679443 848.39638611 -666.59362793 848.63278198 C-668.48960121 849.09635831 -670.38557441 849.55993495 -672.28154755 850.02351189 C-677.01581726 851.18106412 -681.75009323 852.33859081 -686.484375 853.49609375 C-687.421035 853.7251025 -688.35769501 853.95411125 -689.32273865 854.19005966 C-711.10206491 859.51486975 -732.8830499 864.8328815 -754.66415405 870.15041351 C-775.61534967 875.26536106 -796.56616211 880.3818659 -817.515625 885.50390625 C-818.92031288 885.84734385 -818.92031288 885.84734385 -820.3533783 886.19771957 C-825.08975842 887.35574592 -829.8261308 888.51380398 -834.5625 889.671875 C-865.03945638 897.12366548 -895.5181601 904.56821019 -926 912 C-954.50223311 918.94920929 -983.00216115 925.90779177 -1011.5 932.875 C-1012.43379486 933.10329247 -1013.36758972 933.33158493 -1014.3296814 933.56679535 C-1028.55321301 937.04415367 -1042.77662006 940.52202134 -1057 944 C-1072.16659678 947.7086192 -1087.33323774 951.41705761 -1102.5 955.125 C-1103.43443939 955.3534536 -1104.36887878 955.5819072 -1105.33163452 955.81728363 C-1134.54927879 962.96039135 -1163.76949488 970.09289661 -1192.99179077 977.21694946 C-1213.03386961 982.10301535 -1233.07463516 986.99440421 -1253.11328125 991.89453125 C-1254.1262817 992.14223141 -1255.13928215 992.38993156 -1256.18297958 992.64513779 C-1265.13700592 994.83460217 -1274.0910165 997.02413083 -1283.04467773 999.21508789 C-1283.97107119 999.44176714 -1284.89746464 999.66844639 -1285.85193062 999.90199471 C-1287.68868511 1000.35144274 -1289.52543017 1000.80092934 -1291.36216545 1001.25045586 C-1295.74518819 1002.32292071 -1300.12854737 1003.39396919 -1304.51272583 1004.46170044 C-1306.17727364 1004.86717829 -1307.84181437 1005.27268521 -1309.50634766 1005.67822266 C-1310.71052432 1005.97156337 -1310.71052432 1005.97156337 -1311.93902779 1006.27083015 C-1316.54544995 1007.3949004 -1321.14804427 1008.53310605 -1325.74730778 1009.6861124 C-1327.83148504 1010.20796821 -1329.91654987 1010.72609606 -1332.0019989 1011.24284363 C-1334.49037649 1011.86042272 -1336.97702817 1012.48501767 -1339.46150208 1013.11811829 C-1341.08000313 1013.51730721 -1341.08000313 1013.51730721 -1342.73120117 1013.92456055 C-1343.65986496 1014.15821823 -1344.58852875 1014.39187592 -1345.54533386 1014.63261414 C-1348.06123321 1015.00916468 -1349.61218362 1014.81068123 -1352 1014 C-1324.38011359 1004.21669779 -1296.64244205 994.79159942 -1268.875 985.4375 C-1267.993815 985.14064175 -1267.11263 984.84378349 -1266.20474243 984.53792953 C-1261.7905569 983.05089949 -1257.37632594 981.56400432 -1252.96209717 980.07710266 C-1251.68022648 979.64530417 -1251.68022648 979.64530417 -1250.37245941 979.20478249 C-1248.66540235 978.62977044 -1246.95833555 978.05478732 -1245.25125885 977.4798336 C-1232.4910272 973.18179954 -1219.73802097 968.8634937 -1207 964.5 C-1203.95056097 963.45561191 -1200.90110302 962.41127921 -1197.8515625 961.3671875 C-1197.09317078 961.10751694 -1196.33477905 960.84784637 -1195.55340576 960.58030701 C-1183.8353842 956.57138721 -1172.10397439 952.60172781 -1160.375 948.625 C-1142.89259864 942.69697719 -1125.41212274 936.76341727 -1107.9375 930.8125 C-1106.98362396 930.48766632 -1106.02974792 930.16283264 -1105.04696655 929.82815552 C-1100.27017684 928.20138738 -1095.49346434 926.57439268 -1090.71679688 924.94726562 C-1081.04073335 921.65126076 -1071.36413722 918.35682013 -1061.6875 915.0625 C-1060.72114624 914.73350708 -1059.75479248 914.40451416 -1058.75915527 914.06555176 C-1037.2743015 906.75127351 -1015.78646434 899.44577598 -994.29833984 892.14111328 C-988.02825219 890.00964045 -981.75825265 887.87790853 -975.48828125 885.74609375 C-973.94231262 885.22045837 -973.94231262 885.22045837 -972.3651123 884.6842041 C-969.24340671 883.62280711 -966.12170298 882.56140465 -963 881.5 C-951.51608226 877.59537365 -940.03216264 873.69075293 -928.54800415 869.78683472 C-907.19720679 862.5288488 -885.84720867 855.26853497 -864.5 848 C-842.10174941 840.37359459 -819.70035837 832.75644252 -797.29833984 825.14111328 C-791.02825219 823.00964045 -784.75825265 820.87790853 -778.48828125 818.74609375 C-776.94231262 818.22045837 -776.94231262 818.22045837 -775.3651123 817.6842041 C-772.24340671 816.62280711 -769.12170298 815.56140465 -766 814.5 C-754.51608226 810.59537365 -743.03216264 806.69075293 -731.54800415 802.78683472 C-710.19720679 795.5288488 -688.84720867 788.26853497 -667.5 781 C-653.4846044 776.22788227 -639.46855225 771.45770576 -625.45092773 766.69213867 C-621.29786659 765.28021351 -617.14505183 763.86756721 -612.99243164 762.4543457 C-603.18516925 759.117489 -593.3759339 755.7867533 -583.56022644 752.47480774 C-578.95939277 750.92204061 -574.35961517 749.3661587 -569.75991821 747.81002808 C-567.56901812 747.06980011 -565.37760206 746.3310973 -563.18563843 745.59402466 C-560.14196996 744.57045292 -557.10012381 743.54162431 -554.05859375 742.51171875 C-553.17020813 742.21451935 -552.28182251 741.91731995 -551.36651611 741.6111145 C-539.16096384 737.69196453 -539.16096384 737.69196453 -530.0625 729.125 C-529.6497583 728.55547607 -529.2370166 727.98595215 -528.81176758 727.39916992 C-527.52249268 725.61197153 -526.26111474 723.80713909 -525 722 C-524.20259641 720.88783183 -523.40314919 719.77712577 -522.6015625 718.66796875 C-520.95193616 716.37956093 -519.31358361 714.08368517 -517.68359375 711.78125 C-509.66407411 700.4623905 -501.47576138 689.26622072 -493.23364258 678.10888672 C-487.63614485 670.52397852 -482.11615144 662.88444692 -476.60888672 655.23388672 C-473.36853805 650.73476831 -470.11972298 646.24175881 -466.87255859 641.74755859 C-464.17401978 638.012055 -461.47742047 634.2751852 -458.78515625 630.53515625 C-452.65243321 622.02079319 -446.46767211 613.54783798 -440.23291016 605.10791016 C-434.09080366 596.78497251 -428.04209317 588.39567785 -422 580 C-414.79936792 569.99449602 -407.55749214 560.02311522 -400.23291016 550.10791016 C-394.09080366 541.78497251 -388.04209317 533.39567785 -382 525 C-374.79936792 514.99449602 -367.55749214 505.02311522 -360.23291016 495.10791016 C-354.63567826 487.5233116 -349.11591373 479.8841167 -343.60888672 472.23388672 C-340.36853805 467.73476831 -337.11972298 463.24175881 -333.87255859 458.74755859 C-331.17401978 455.012055 -328.47742047 451.2751852 -325.78515625 447.53515625 C-319.65243321 439.02079319 -313.46767211 430.54783798 -307.23291016 422.10791016 C-301.09080366 413.78497251 -295.04209317 405.39567785 -289 397 C-281.79936792 386.99449602 -274.55749214 377.02311522 -267.23291016 367.10791016 C-261.09080366 358.78497251 -255.04209317 350.39567785 -249 342 C-241.79936792 331.99449602 -234.55749214 322.02311522 -227.23291016 312.10791016 C-221.63567826 304.5233116 -216.11591373 296.8841167 -210.60888672 289.23388672 C-207.36853805 284.73476831 -204.11972298 280.24175881 -200.87255859 275.74755859 C-198.17401978 272.012055 -195.47742047 268.2751852 -192.78515625 264.53515625 C-186.65243321 256.02079319 -180.46767211 247.54783798 -174.23291016 239.10791016 C-168.09080366 230.78497251 -162.04209317 222.39567785 -156 214 C-148.79936792 203.99449602 -141.55749214 194.02311522 -134.23291016 184.10791016 C-128.09080366 175.78497251 -122.04209317 167.39567785 -116 159 C-108.79936792 148.99449602 -101.55749214 139.02311522 -94.23291016 129.10791016 C-88.09080366 120.78497251 -82.04209317 112.39567785 -76 104 C-69.31773925 94.71478923 -62.61110993 85.45050301 -55.8125 76.25 C-50.99605784 69.73131921 -46.23977065 63.1755172 -41.54296875 56.5703125 C-32.94807477 44.48640215 -24.19757303 32.51683785 -15.38671875 20.58984375 C-11.66948528 15.55726514 -7.97350575 10.50919436 -4.28662109 5.4543457 C-1.10899842 1.10899842 -1.10899842 1.10899842 0 0 Z " fill="#65A1EF" transform="translate(1352,425)"/>
<path d="M0 0 C8.57508981 33.88958207 16.93187093 67.82865505 25.125 101.8125 C25.35040718 102.74743412 25.57581436 103.68236824 25.80805206 104.6456337 C26.26987657 106.56117723 26.73170099 108.47672079 27.19352531 110.39226437 C28.39173504 115.36184302 29.59026814 120.3313436 30.7890625 125.30078125 C31.03345692 126.31393213 31.27785133 127.32708302 31.52965164 128.37093544 C37.82908557 154.47907718 44.1975995 180.57036583 50.56368256 206.66231918 C59.41291591 242.93263895 68.24182693 279.20757997 77 315.5 C85.3891345 350.26183087 93.83977803 385.00845086 102.3125 419.75 C104.77882276 429.86323811 107.24505277 439.97649883 109.7109375 450.08984375 C110.01517324 451.33760275 110.31940899 452.58536175 110.632864 453.87093163 C115.06734271 472.05929034 119.4947119 490.24936581 123.9140625 508.44140625 C124.19047577 509.57915623 124.46688904 510.7169062 124.75167847 511.88913345 C127.68805197 523.97664671 130.62072679 536.06504423 133.54589844 548.15527344 C134.53826072 552.25589587 135.53080337 556.35647461 136.5234375 560.45703125 C136.76167236 561.44142056 136.99990723 562.42580986 137.24536133 563.44002914 C140.16555641 575.5017419 143.11908755 587.55434404 146.12421227 599.59517479 C147.3065574 604.34019949 148.47779617 609.08798296 149.65090942 613.83529663 C150.5202411 617.33011416 151.40779164 620.81991858 152.29663086 624.30981445 C154.98866763 635.0866047 156.94579391 644.82730702 156 656 C155.93208252 656.82870605 155.86416504 657.65741211 155.79418945 658.51123047 C155.56627283 660.59338007 155.25333237 662.62780288 154.875 664.6875 C154.74230713 665.42895264 154.60961426 666.17040527 154.47290039 666.93432617 C148.90264016 696.17742936 135.75820137 721.7431031 115 743 C113.92878906 744.16402344 113.92878906 744.16402344 112.8359375 745.3515625 C85.63934806 774.17791011 42.64543688 787.85745543 3.87011719 789.06640625 C-16.90300278 789.5850859 -36.14529835 787.11314973 -56.22412109 781.72314453 C-58.60692341 781.10240043 -60.98532973 780.5631892 -63.39453125 780.05859375 C-74.43064885 777.29667531 -80.22773221 770.39175352 -87.31005859 761.9921875 C-89.65134649 759.23216016 -92.10051916 756.59052767 -94.5625 753.9375 C-95.43003906 752.98746094 -96.29757812 752.03742187 -97.19140625 751.05859375 C-100.43556302 747.51537175 -103.71821075 744.00833315 -107 740.5 C-112.08657927 735.06191195 -117.13267457 729.59013253 -122.15625 724.09375 C-125.4136476 720.54022535 -128.70704512 717.02054571 -132 713.5 C-137.08655575 708.06188964 -142.13267425 702.59013288 -147.15625 697.09375 C-150.41364794 693.54022497 -153.70707554 690.02057466 -157 686.5 C-162.13247534 681.01193233 -167.22974271 675.49404776 -172.30078125 669.94921875 C-180.10293432 661.424435 -187.966465 652.95777992 -195.85864258 644.51635742 C-200.32269837 639.73709041 -204.74417969 634.92107399 -209.15625 630.09375 C-212.4136476 626.54022535 -215.70704512 623.02054571 -219 619.5 C-224.08655575 614.06188964 -229.13267425 608.59013288 -234.15625 603.09375 C-237.41364794 599.54022497 -240.70707554 596.02057466 -244 592.5 C-249.13247534 587.01193233 -254.22974271 581.49404776 -259.30078125 575.94921875 C-267.10293432 567.424435 -274.966465 558.95777992 -282.85864258 550.51635742 C-287.32269837 545.73709041 -291.74417969 540.92107399 -296.15625 536.09375 C-299.4136476 532.54022535 -302.70704512 529.02054571 -306 525.5 C-311.08655575 520.06188964 -316.13267425 514.59013288 -321.15625 509.09375 C-324.41364794 505.54022497 -327.70707554 502.02057466 -331 498.5 C-336.13247534 493.01193233 -341.22974271 487.49404776 -346.30078125 481.94921875 C-354.10293432 473.424435 -361.966465 464.95777992 -369.85864258 456.51635742 C-374.31893453 451.74112002 -378.73709358 446.92956227 -383.14453125 442.10546875 C-387.06013354 437.83352299 -391.0296852 433.61164366 -394.99536133 429.38623047 C-398.9206344 425.19279139 -402.74229921 420.92818675 -406.44921875 416.5390625 C-408.02863123 414.74389062 -408.02863123 414.74389062 -411 414 C-396.85871457 472.74162378 -382.60136646 531.45457252 -368.2957859 590.15638351 C-363.86485282 608.33859373 -359.43974745 626.52221282 -355.01953125 644.70703125 C-354.44551352 647.06841597 -353.87149314 649.42980004 -353.29747009 651.79118347 C-352.4420826 655.31006757 -351.58669798 658.82895236 -350.73131847 662.3478384 C-349.8833894 665.83606147 -349.03544727 669.32428136 -348.1875 672.8125 C-347.77034792 674.52857767 -347.77034792 674.52857767 -347.34476852 676.27932358 C-341.09655629 701.98223596 -334.83915406 727.68283578 -328.546875 753.375 C-328.28619547 754.43952581 -328.02551594 755.50405163 -327.75693703 756.6008358 C-325.29203538 766.66626595 -322.82596628 776.73140676 -320.3552103 786.79540157 C-315.87384318 805.05140156 -311.41341701 823.31260309 -307.0268116 841.59163475 C-306.57788993 843.45984147 -306.12747017 845.3276889 -305.67547417 847.19515419 C-305.05276643 849.76993891 -304.43587947 852.34604939 -303.82055664 854.92260742 C-303.63499521 855.68498152 -303.44943378 856.44735561 -303.25824928 857.23283195 C-302.45569041 860.61971242 -302 863.49474626 -302 867 C-312.26854955 869.64156409 -322.5446651 872.25123677 -332.83092499 874.82302856 C-337.60965425 876.01881985 -342.38537393 877.22449658 -347.15527344 878.45507812 C-388.75818712 889.17234675 -424.74834388 890.77415671 -463.07470703 868.19580078 C-468.40123212 864.8874924 -473.22256563 861.04856938 -478 857 C-479.00546875 856.15824219 -480.0109375 855.31648438 -481.046875 854.44921875 C-491.63832077 845.32249284 -500.16357568 834.47055131 -507.4375 822.5625 C-508.02072021 821.6351001 -508.02072021 821.6351001 -508.61572266 820.68896484 C-516.37465333 807.40661397 -518.95629353 790.58031087 -522.515625 775.77734375 C-523.04431508 773.59592113 -523.57348274 771.41461421 -524.10308838 769.2334137 C-525.52731746 763.36215958 -526.94514315 757.48937625 -528.36184692 751.61630249 C-529.86682412 745.38256419 -531.37802018 739.15033388 -532.88867188 732.91796875 C-535.38370854 722.62161819 -537.87560117 712.32451353 -540.36523438 702.02685547 C-543.69963796 688.23615848 -547.04281987 674.44760544 -550.390625 660.66015625 C-550.64482145 659.61324804 -550.89901791 658.56633984 -551.16091728 657.48770714 C-552.18034473 653.28928518 -553.19981206 649.09087291 -554.21938229 644.89248562 C-556.00531745 637.53816314 -557.79015623 630.18357517 -559.57446289 622.82885742 C-564.97321353 600.57680567 -570.37826084 578.32629955 -575.79296875 556.078125 C-576.0769817 554.91113571 -576.36099464 553.74414642 -576.65361404 552.54179382 C-578.09016021 546.63918042 -579.52676479 540.73658124 -580.96337891 534.83398438 C-590.10755202 497.26302939 -599.23295127 459.68770318 -608.30340576 422.09887695 C-613.63624797 399.99927427 -618.99254217 377.90556266 -624.38116837 355.81948853 C-625.32698492 351.94281963 -626.27227734 348.06602303 -627.21749878 344.18920898 C-627.84355982 341.62158031 -628.46962792 339.05395335 -629.09570312 336.48632812 C-629.40442415 335.22019684 -629.71314518 333.95406555 -630.03122139 332.64956665 C-631.86682604 325.12289293 -633.70554983 317.59698929 -635.5464983 310.07162094 C-636.68767068 305.40394619 -637.82614232 300.73561565 -638.96393394 296.06711578 C-639.49588283 293.88708821 -640.02901314 291.70734853 -640.56339455 289.52791595 C-641.29767643 286.53269259 -642.0278566 283.53649732 -642.75708008 280.54003906 C-642.97144714 279.67000999 -643.18581421 278.79998093 -643.40667725 277.90358734 C-650.7457677 247.61361207 -644.12136361 214.41376224 -628.19580078 187.89306641 C-624.85196565 182.59945726 -621.04451258 177.77154731 -617 173 C-616.36239746 172.23695557 -616.36239746 172.23695557 -615.71191406 171.45849609 C-598.59704733 151.14344548 -576.6574119 139.27047271 -551.00390625 133.046875 C-549.59794155 132.69849055 -548.19217831 132.34929216 -546.78660583 131.99932861 C-543.12628783 131.09039667 -539.46324104 130.19299014 -535.79949951 129.29797363 C-532.8058318 128.56464715 -529.81418114 127.82328787 -526.82260227 127.08149338 C-520.63448867 125.54709249 -514.44482774 124.01900045 -508.25219727 122.50292969 C-506.61771385 122.10252472 -506.61771385 122.10252472 -504.95021057 121.69403076 C-473.75967625 114.35652391 -438.40330038 126.10460961 -411.9375 142.4296875 C-404.10462037 147.53178848 -397.84976857 153.72022847 -391.75390625 160.734375 C-388.04317683 164.98580229 -384.19627334 169.09446138 -380.3125 173.1875 C-375.47257543 178.30851722 -370.64528055 183.43899457 -365.875 188.625 C-361.60310688 193.2686778 -357.30897268 197.89070142 -353 202.5 C-348.65119779 207.15256575 -344.31493017 211.81600129 -340 216.5 C-333.36734654 223.69845129 -326.68412556 230.84937058 -320 238 C-312.82482073 245.67595514 -305.65768087 253.35840122 -298.53857422 261.08642578 C-294.70920646 265.24008006 -290.85775317 269.37270949 -287 273.5 C-282.16039204 278.67774651 -277.34094161 283.87320243 -272.5390625 289.0859375 C-268.70948543 293.23971157 -264.85791031 297.37254137 -261 301.5 C-256.16039204 306.67774651 -251.34094161 311.87320243 -246.5390625 317.0859375 C-242.70948543 321.23971157 -238.85791031 325.37254137 -235 329.5 C-230.16039204 334.67774651 -225.34094161 339.87320243 -220.5390625 345.0859375 C-216.70948543 349.23971157 -212.85791031 353.37254137 -209 357.5 C-204.16039204 362.67774651 -199.34094161 367.87320243 -194.5390625 373.0859375 C-190.11680772 377.88256306 -185.66389662 382.65020791 -181.20874023 387.41625977 C-177.47816409 391.40953086 -173.76372894 395.4170276 -170.0625 399.4375 C-165.56900106 404.31753649 -161.04145921 409.16458034 -156.5 414 C-151.47016179 419.35541055 -146.46440409 424.73138854 -141.48828125 430.13671875 C-137.67662115 434.2745102 -133.84175806 438.39015142 -130 442.5 C-125.16036909 447.67772492 -120.34094145 452.8732026 -115.5390625 458.0859375 C-111.12489064 462.87379587 -106.68056578 467.63315008 -102.23291016 472.38989258 C-97.76770153 477.16854718 -93.32666157 481.96893286 -88.90625 486.7890625 C-86.3305867 489.59027823 -83.71307411 492.33150692 -81 495 C-82.55650415 485.3535581 -84.89227053 475.91464497 -87.234375 466.4375 C-87.664005 464.68813393 -88.0933019 462.93868603 -88.52229309 461.18916321 C-89.44363731 457.43391733 -90.36684767 453.67913733 -91.29153442 449.92471313 C-93.55065831 440.7509259 -95.7990345 431.57450165 -98.04786873 422.39818764 C-98.56776184 420.27688258 -99.08776582 418.15560468 -99.60787773 416.03435326 C-104.7535597 395.046755 -109.83863098 374.04480636 -114.90511703 353.0379715 C-124.65316156 312.6231465 -134.48398595 272.22866957 -144.33670044 231.83926392 C-144.6447162 230.57660611 -144.95273195 229.31394831 -145.27008152 228.01302814 C-145.88015129 225.51240403 -146.49031521 223.01180288 -147.10057735 220.5112257 C-148.55025911 214.57034856 -149.99819721 208.62905915 -151.4417572 202.68669128 C-154.59039663 189.70951475 -154.59039663 189.70951475 -157.82893276 176.75458717 C-158.35403413 174.68786219 -158.87422256 172.6199661 -159.39283752 170.55160522 C-159.96619987 168.27411042 -160.54952896 165.99907572 -161.14756775 163.72793579 C-168.81647838 133.04879996 -159.8725765 99.72499178 -144.25537109 73.05078125 C-141.20490052 68.06751544 -137.75724774 63.47672071 -134 59 C-133.29359375 58.154375 -132.5871875 57.30875 -131.859375 56.4375 C-107.95830443 28.92547632 -78.5252133 17.55945132 -43.8637085 9.49108887 C-39.8853467 8.5593425 -35.9137989 7.59938973 -31.94140625 6.64257812 C-4.27920895 0 -4.27920895 0 0 0 Z " fill="#5BB1ED" transform="translate(904,1248)"/>
<path d="M0 0 C1 3 1 3 -0.2565918 5.92895508 C-0.89370303 7.13139889 -1.54212675 8.3278887 -2.19921875 9.51953125 C-2.54515579 10.16540695 -2.89109283 10.81128265 -3.24751282 11.47673035 C-4.38462675 13.59395746 -5.53591308 15.70311534 -6.6875 17.8125 C-7.4806755 19.28274068 -8.27298776 20.75344738 -9.06445312 22.22460938 C-11.36322774 26.49023298 -13.67936224 30.74624085 -16 35 C-16.56541504 36.03817871 -17.13083008 37.07635742 -17.71337891 38.14599609 C-19.60852127 41.62341816 -21.50623017 45.09940007 -23.41015625 48.57202148 C-29.60528463 59.88916378 -35.6218799 71.30196682 -41.66151428 82.70256042 C-44.25089286 87.58964928 -46.84641126 92.47343803 -49.4453125 97.35546875 C-56.27488076 110.18777139 -63.07605875 123.0317858 -69.77050781 135.93530273 C-72.95144889 142.04620062 -76.23315773 148.0939457 -79.5625 154.125 C-86.44293552 166.6104221 -92.88157546 179.32263865 -99.37210083 192.01327515 C-99.77137787 192.79393341 -100.17065491 193.57459167 -100.58203125 194.37890625 C-101.17091629 195.53043686 -101.17091629 195.53043686 -101.771698 196.70523071 C-104.94576584 202.90656375 -108.16995298 209.07988994 -111.43066406 215.23608398 C-114.95096247 221.88731445 -118.41461589 228.56742977 -121.875 235.25 C-126.21549376 243.63220656 -130.56560486 252.00912806 -134.9375 260.375 C-143.41658584 276.60901956 -151.81992 292.88237231 -160.20703125 309.1640625 C-160.73598244 310.19089142 -160.73598244 310.19089142 -161.27561951 311.23846436 C-163.0693447 314.72100659 -164.86225056 318.20396796 -166.65405273 321.6875 C-170.0710941 328.32873264 -173.49725749 334.96481384 -176.953125 341.5859375 C-205.47625433 392.02194556 -205.47625433 392.02194556 -205 448 C-200.05151856 463.05163104 -190.40062402 474.35089624 -177.75 483.5625 C-177.06236572 484.07006836 -176.37473145 484.57763672 -175.66625977 485.10058594 C-174.19803679 486.18352588 -172.72802413 487.26404308 -171.25634766 488.34228516 C-169.01045869 489.99231611 -166.77555271 491.65624108 -164.54296875 493.32421875 C-153.13491107 501.82498686 -141.50058702 509.97469767 -129.79736328 518.0625 C-125.51995094 521.02510642 -121.2597491 524.0120787 -117 527 C-109.84400897 532.01542006 -102.67548498 537.01251244 -95.5 542 C-87.50850164 547.55467662 -79.5286375 553.12553084 -71.55859375 558.7109375 C-65.21521942 563.1543154 -58.85947311 567.57970045 -52.5 572 C-44.50850164 577.55467662 -36.5286375 583.12553084 -28.55859375 588.7109375 C-22.2152193 593.15431548 -15.85945204 597.57966998 -9.5 602 C0.19689875 608.74067513 9.87709203 615.50481404 19.54833984 622.28222656 C22.86286645 624.60457363 26.17846892 626.92538198 29.49414062 629.24609375 C31.99230959 630.99461732 34.49029566 632.74340197 36.98828125 634.4921875 C40.36003531 636.85248124 43.7325041 639.2117491 47.10546875 641.5703125 C57.06185402 648.53358032 67.00244384 655.51849276 76.92333984 662.53222656 C79.73739834 664.52118961 82.55272496 666.50835324 85.36816406 668.49536133 C86.78821219 669.49762388 88.2081343 670.50006501 89.62792969 671.50268555 C93.15477599 673.99310561 96.68316208 676.48128462 100.21484375 678.96484375 C108.34148688 684.68348815 116.42843387 690.45301035 124.47583008 696.28271484 C128.44625583 699.15860945 132.42562507 702.02028797 136.42504883 704.85571289 C139.29243721 706.89125803 142.14812876 708.9427868 145 711 C145.67901367 711.48887695 146.35802734 711.97775391 147.05761719 712.48144531 C149.21251611 714.0402044 151.35726381 715.6120745 153.5 717.1875 C154.15887207 717.6626001 154.81774414 718.1377002 155.49658203 718.62719727 C160.68012935 722.4701263 165.91124521 726.73373563 168 733 C168.76624134 739.3488568 167.62771824 742.77170043 163.8046875 747.8984375 C152.61806152 760.92528766 131.01841894 762.85287399 115.07421875 766.69140625 C112.83270914 767.23524226 110.59131283 767.77954543 108.35002136 768.32427979 C102.36681035 769.77697432 96.38202803 771.22308253 90.3967514 772.66724014 C84.17881193 774.16799353 77.96178114 775.672503 71.74462891 777.17651367 C64.18351226 779.00544436 56.62223774 780.83371155 49.06030273 782.65925598 C34.16510212 786.25656363 19.27885637 789.88823028 4.40060616 793.55497932 C-1.39572337 794.98179832 -7.19404726 796.40048703 -12.99254322 797.81847286 C-17.49173233 798.91939984 -21.98946155 800.02568266 -26.48428345 801.14431763 C-30.64256943 802.17910324 -34.80399863 803.20005309 -38.96835899 804.2101059 C-40.47314607 804.5777989 -41.97666464 804.9507301 -43.47873878 805.32935333 C-45.50760615 805.84010731 -47.5401432 806.33209963 -49.57470703 806.81958008 C-50.70329132 807.09788162 -51.83187561 807.37618317 -52.99465942 807.66291809 C-56.99508081 808.11160923 -59.43984987 807.10236386 -62.67822266 804.81420898 C-63.41371338 804.16174194 -63.41371338 804.16174194 -64.1640625 803.49609375 C-64.72319336 803.00729736 -65.28232422 802.51850098 -65.85839844 802.01489258 C-66.44137695 801.49435303 -67.02435547 800.97381348 -67.625 800.4375 C-68.8714641 799.34528992 -70.11887009 798.25415389 -71.3671875 797.1640625 C-71.98174805 796.62555664 -72.59630859 796.08705078 -73.22949219 795.53222656 C-75.69093013 793.40205771 -78.21604695 791.35554477 -80.75 789.3125 C-85.99868721 785.05035018 -90.9984094 780.54690055 -96 776 C-105.23944306 767.76242426 -114.70419616 759.77979265 -124.40625 752.09375 C-128.05401433 749.14916916 -131.6145398 746.10548467 -135.18359375 743.06640625 C-139.19963908 739.6551301 -143.29092151 736.3534799 -147.421875 733.08203125 C-150.40967168 730.66915908 -153.33056197 728.18203921 -156.25 725.6875 C-160.70639633 721.88255447 -165.24178606 718.2121094 -169.875 714.625 C-175.62035524 710.16959869 -181.13096178 705.4885595 -186.60058594 700.70019531 C-191.07760385 696.78368043 -195.63542937 692.98672933 -200.2578125 689.2421875 C-203.37000148 686.69746317 -206.43726497 684.10381775 -209.5 681.5 C-213.46899152 678.12711398 -217.4601718 674.78823226 -221.5 671.5 C-228.30413786 665.95807902 -234.97975878 660.26691077 -241.66601562 654.58398438 C-247.22068034 649.8648039 -252.78059925 645.15924951 -258.4375 640.5625 C-263.29843701 636.60723975 -268.0540756 632.54026529 -272.79956055 628.44824219 C-276.40545946 625.34573369 -280.05194825 622.30541477 -283.75 619.3125 C-288.12507747 615.76254679 -292.30549192 612.04436179 -296.46875 608.25 C-299.0884481 605.92137947 -301.7751531 603.70437053 -304.5 601.5 C-309.02097529 597.83985922 -313.36689392 594.0321816 -317.66796875 590.1171875 C-319.75823889 588.21948831 -321.86986115 586.35266585 -324 584.5 C-327.05019378 581.84417471 -330.0615058 579.14880547 -333.0625 576.4375 C-333.90554688 575.68339844 -334.74859375 574.92929688 -335.6171875 574.15234375 C-337.0789367 572.83197685 -338.52564062 571.49441394 -339.9453125 570.12890625 C-343.78005697 566.54350615 -346.50901483 564.89831509 -352 565 C-354.92902303 565.95668033 -354.92902303 565.95668033 -357 568 C-358.68695024 572.69080516 -357.33625014 576.8891262 -356.13598633 581.5378418 C-355.9240309 582.3935612 -355.71207548 583.24928061 -355.49369717 584.1309309 C-354.78303285 586.98959699 -354.05746578 589.84426826 -353.33203125 592.69921875 C-352.823306 594.73406059 -352.31557657 596.76915161 -351.80877686 598.80447388 C-350.72196756 603.16116971 -349.62879827 607.51619988 -348.5305481 611.87002563 C-346.80749214 618.70139263 -345.09829348 625.53617228 -343.39233398 632.37182617 C-342.81588053 634.68123072 -342.23941871 636.99063318 -341.66294861 639.30003357 C-341.37631788 640.44840635 -341.08968716 641.59677914 -340.79437065 642.7799511 C-339.91766547 646.29029254 -339.03957515 649.800285 -338.16114807 653.31019592 C-332.75894022 674.90446532 -327.46605453 696.52472731 -322.20861435 718.15463638 C-320.9449461 723.35287703 -319.67972108 728.55073901 -318.41475868 733.74866486 C-317.48829483 737.55592275 -316.56221187 741.36327182 -315.63739014 745.17092896 C-315.47363136 745.84458622 -315.30987259 746.51824348 -315.14115143 747.21231461 C-314.6875789 749.07947474 -314.2352683 750.94694128 -313.78302002 752.81442261 C-313.13971415 755.43159788 -312.46523785 758.03691314 -311.77661133 760.64233398 C-311.10187522 763.55954421 -310.77656999 765.91965185 -310.8828125 768.890625 C-310.91342773 769.75486084 -310.94404297 770.61909668 -310.97558594 771.50952148 C-311.02489258 772.41387939 -311.07419922 773.3182373 -311.125 774.25 C-311.19895996 775.68484741 -311.19895996 775.68484741 -311.27441406 777.14868164 C-313.54884574 813.29845116 -329.87919649 847.79657376 -357 872 C-359.66284651 874.20736873 -362.37748276 876.33671926 -365.125 878.4375 C-366.11028687 879.20018188 -366.11028687 879.20018188 -367.11547852 879.97827148 C-368.08312134 880.69865601 -368.08312134 880.69865601 -369.0703125 881.43359375 C-369.91746826 882.06865845 -369.91746826 882.06865845 -370.78173828 882.71655273 C-376.73036289 886.15832244 -383.48050474 887.75866264 -390.10644531 889.36010742 C-390.9790097 889.57512405 -391.8515741 889.79014069 -392.75057983 890.01167297 C-395.60858157 890.71452108 -398.46826312 891.41023161 -401.328125 892.10546875 C-403.32500356 892.59412934 -405.32180829 893.08309176 -407.31854248 893.57234192 C-411.49023704 894.59332483 -415.66276933 895.61079006 -419.8359375 896.62573242 C-425.18636473 897.92727318 -430.53464692 899.23739499 -435.88234329 900.55010509 C-439.99927511 901.55973758 -444.11727588 902.5649511 -448.23561859 903.56881142 C-450.20873455 904.05030874 -452.18152066 904.53315977 -454.15396881 905.01738548 C-456.90528853 905.69209665 -459.65798379 906.36087471 -462.41113281 907.02807617 C-463.22574982 907.22907928 -464.04036682 907.4300824 -464.87966919 907.63717651 C-468.38059375 908.47965967 -471.37730146 909 -475 909 C-484.67832171 869.96531629 -494.25816446 830.90811307 -503.6875 791.8125 C-511.23323356 760.52719314 -518.83673014 729.25672535 -526.5 698 C-534.26548235 666.32499112 -541.96959398 634.63585436 -549.61721802 602.93218994 C-557.01357693 572.27216329 -564.48401851 541.6309135 -572 511 C-580.20037629 477.57987819 -588.33579113 444.14486649 -596.40274048 410.69229126 C-601.69349897 388.75344731 -607.01179127 366.82169161 -612.3828125 344.90234375 C-612.6480541 343.81968609 -612.91329571 342.73702843 -613.18657494 341.62156296 C-615.76970325 331.07873769 -618.35525702 320.53651382 -620.94712448 309.9958334 C-621.89354238 306.14547095 -622.83840108 302.29472689 -623.78297043 298.4439106 C-624.21877405 296.66900514 -624.65532073 294.89428193 -625.09270096 293.11976433 C-627.05602913 285.15404808 -628.99801467 277.18406258 -630.79394531 269.17871094 C-631.15265717 267.58044464 -631.15265717 267.58044464 -631.51861572 265.94989014 C-632.29715894 261.17903023 -631.83648269 256.8015896 -631.0625 252.0625 C-630.91772217 251.09086914 -630.77294434 250.11923828 -630.6237793 249.11816406 C-626.04833629 220.36616341 -615.67184564 191.66869438 -597 169 C-596.30535645 168.14728516 -596.30535645 168.14728516 -595.59667969 167.27734375 C-577.02575236 144.57545767 -558.7986093 135.48803102 -530.71875 128.671875 C-529.09016692 128.27420371 -527.4616277 127.87635279 -525.83312988 127.47833252 C-522.44864074 126.65216022 -519.06344271 125.82897352 -515.67773438 125.0078125 C-511.34426905 123.95640025 -507.01302979 122.89611054 -502.68230438 121.83347702 C-499.33240286 121.01277156 -495.98122546 120.19737797 -492.62965393 119.38352203 C-491.03126022 118.99458371 -489.43330194 118.6038513 -487.83580017 118.21126556 C-485.6099275 117.66495971 -483.38239824 117.12599991 -481.15429688 116.58886719 C-479.89000854 116.28116394 -478.62572021 115.97346069 -477.32312012 115.65643311 C-474.42782799 115.08451108 -471.93513948 114.85801653 -469 115 C-458.34382461 158.13644678 -447.88567786 201.32019909 -437.44147873 244.50835609 C-433.4314101 261.09025847 -429.41501075 277.67061889 -425.39453125 294.25 C-425.12257683 295.37150578 -424.85062241 296.49301155 -424.57042694 297.64850235 C-422.17910312 307.50987994 -419.78749734 317.37118912 -417.39532471 327.23236084 C-406.94533408 370.31052289 -406.94533408 370.31052289 -402 391 C-399.05595673 387.53066109 -396.89607495 384.13781997 -394.8984375 380.0546875 C-394.3314917 378.90589111 -393.7645459 377.75709473 -393.18041992 376.57348633 C-392.88622162 375.97065826 -392.59202332 375.3678302 -392.28890991 374.74673462 C-390.73053802 371.55510865 -389.15121902 368.37385749 -387.57421875 365.19140625 C-387.26235123 364.56084824 -386.9504837 363.93029022 -386.62916565 363.28062439 C-384.22025025 358.41851749 -381.73768089 353.60170206 -379.1875 348.8125 C-374.63405419 340.24617377 -370.18661339 331.6272095 -365.75 323 C-364.26969689 320.1223106 -362.78921938 317.24471097 -361.30859375 314.3671875 C-360.94338623 313.6574025 -360.57817871 312.94761749 -360.2019043 312.21632385 C-355.05754942 302.2217024 -349.8766761 292.2460197 -344.69726562 282.26953125 C-341.81752 276.72212714 -338.93988101 271.1736309 -336.0625 265.625 C-335.48733643 264.51592285 -334.91217285 263.4068457 -334.31958008 262.26416016 C-329.72455101 253.4017242 -325.13755093 244.53515262 -320.55252075 235.6675415 C-315.46548001 225.82926209 -310.36951758 215.99563886 -305.26953125 206.1640625 C-301.00712113 197.94575266 -296.75204005 189.72367767 -292.5 181.5 C-287.09727114 171.05082734 -281.68615499 160.60604145 -276.26953125 150.1640625 C-272.32311251 142.55501243 -268.38268232 134.94289052 -264.4458313 127.32888794 C-263.5045077 125.50871622 -262.56274883 123.68877039 -261.62084961 121.86889648 C-258.79593331 116.41021671 -255.97319596 110.95047384 -253.16152954 105.48495483 C-228.61660531 57.77932362 -228.61660531 57.77932362 -204.19088745 49.66809082 C-196.44490195 47.30602434 -188.49217099 45.62591451 -180.6050415 43.81124878 C-173.74552348 42.2309113 -166.8942604 40.61554846 -160.04296875 39 C-158.88668724 38.72773999 -158.88668724 38.72773999 -157.70704651 38.44997978 C-131.63330981 32.30526619 -105.63537548 25.84380207 -79.625 19.4375 C-77.09022355 18.81328975 -74.55544371 18.18909327 -72.0206604 17.56491089 C-70.78169982 17.25981283 -69.54273924 16.95471478 -68.2662344 16.64037132 C-64.58301871 15.73344532 -60.89975063 14.82673232 -57.21647644 13.92004395 C-52.6786173 12.80297852 -48.14105055 11.68473773 -43.60371399 10.56555176 C-29.08266598 6.98672809 -14.54656882 3.47361382 0 0 Z " fill="#6B9DF0" transform="translate(1588,1081)"/>
</svg>
